<?xml version="1.0" standalone="no"?>
<!DOCTYPE svg PUBLIC "-//W3C//DTD SVG 20010904//EN"
 "http://www.w3.org/TR/2001/REC-SVG-20010904/DTD/svg10.dtd">
<svg version="1.0" xmlns="http://www.w3.org/2000/svg"
 width="830.000000pt" height="612.000000pt" viewBox="0 0 830.000000 612.000000"
 preserveAspectRatio="xMidYMid meet">
<metadata>
Created by potrace 1.16, written by Peter Selinger 2001-2019
</metadata>
<g transform="translate(0.000000,612.000000) scale(0.100000,-0.100000)"
fill="#ffffff" stroke="none">
<path d="M4806 5987 c-9 -15 -24 -39 -33 -54 -10 -16 -24 -41 -33 -58 -9 -16
-52 -91 -95 -165 -43 -74 -105 -181 -137 -237 -32 -56 -67 -117 -77 -135 -11
-18 -48 -82 -83 -143 -34 -60 -67 -118 -73 -127 -51 -86 -132 -227 -138 -243
-4 -11 -11 -22 -16 -25 -4 -3 -14 -18 -23 -35 -15 -31 -76 -136 -109 -190 -10
-16 -42 -72 -71 -124 -29 -51 -63 -110 -75 -130 -12 -20 -26 -43 -30 -51 -4
-8 -28 -50 -53 -94 -25 -43 -54 -94 -66 -115 -21 -36 -138 -238 -223 -384 -44
-76 -81 -141 -125 -219 -12 -21 -60 -104 -108 -185 -47 -81 -103 -179 -125
-216 -21 -37 -47 -83 -58 -101 -25 -41 -107 -185 -118 -206 -4 -8 -18 -31 -30
-51 -12 -20 -46 -78 -75 -130 -29 -52 -64 -112 -77 -134 -14 -22 -46 -77 -72
-123 -27 -46 -58 -100 -70 -120 -13 -20 -26 -44 -30 -52 -5 -8 -28 -51 -53
-94 -64 -111 -90 -159 -90 -163 0 -1 170 -3 378 -3 l378 0 23 43 c13 23 33 58
44 79 12 20 42 71 67 115 24 43 49 86 55 95 5 9 17 29 26 45 9 15 33 57 54 93
21 36 45 79 53 95 9 17 22 36 29 43 7 7 13 18 13 23 0 18 62 109 75 109 8 0
20 -7 29 -15 8 -8 18 -15 22 -15 3 0 29 -16 55 -35 27 -19 51 -35 54 -35 4 0
69 -41 277 -177 37 -23 71 -43 76 -43 5 0 15 -7 23 -16 7 -8 30 -24 51 -35
l38 -19 0 139 c0 137 -1 141 -24 153 -25 14 -257 162 -337 216 -27 17 -52 32
-56 32 -10 1 -67 50 -62 54 2 1 36 22 74 46 89 55 148 93 255 162 47 30 100
64 118 74 l32 18 0 139 c0 115 -2 138 -14 134 -8 -3 -53 -31 -100 -61 -47 -31
-88 -56 -92 -56 -3 0 -19 -11 -36 -25 -48 -40 -50 -29 -10 38 21 34 65 109 98
167 32 58 63 113 69 122 5 10 40 70 78 133 37 63 67 119 67 124 0 5 4 11 8 13
8 3 121 198 135 233 4 11 11 22 16 25 4 3 31 48 60 100 75 134 79 140 107 185
13 22 38 65 54 95 17 30 41 73 55 95 13 22 31 55 40 73 10 18 21 34 25 37 4 2
41 -55 83 -128 41 -73 114 -199 161 -282 47 -82 90 -157 96 -165 5 -8 31 -53
57 -99 27 -46 60 -104 75 -130 15 -25 33 -57 41 -71 8 -14 31 -54 52 -90 21
-36 45 -78 53 -95 9 -16 18 -32 22 -35 3 -3 37 -59 74 -125 36 -66 72 -129 79
-140 35 -56 57 -95 57 -100 0 -6 -36 12 -54 26 -6 5 -40 28 -76 50 -36 23 -81
52 -101 65 -19 13 -38 24 -42 24 -4 0 -6 -64 -5 -141 l3 -142 33 -17 c18 -10
51 -30 73 -44 39 -26 54 -35 189 -121 41 -26 99 -63 128 -82 l53 -35 -30 -21
c-17 -12 -55 -37 -84 -55 -95 -60 -192 -121 -207 -132 -8 -5 -48 -31 -87 -57
l-73 -46 0 -139 c0 -109 3 -138 13 -132 6 4 44 28 82 52 39 25 95 60 125 80
113 71 126 80 190 121 71 45 68 44 155 101 69 45 61 49 120 -55 17 -29 53 -93
82 -142 56 -97 184 -317 217 -374 61 -106 112 -196 119 -209 4 -8 18 -31 30
-52 28 -46 109 -188 120 -208 4 -8 18 -33 32 -55 21 -35 85 -144 135 -233 20
-36 128 -222 160 -277 22 -38 106 -184 137 -239 l12 -21 -369 -3 -370 -2 0
-65 0 -65 -2347 0 -2348 0 -43 -78 c-23 -42 -55 -99 -71 -127 -17 -27 -36 -61
-44 -75 -8 -14 -31 -54 -52 -90 -21 -36 -45 -80 -54 -97 -8 -18 -19 -33 -23
-33 -4 0 -8 -7 -8 -15 0 -13 388 -15 3435 -15 1889 0 3435 4 3435 8 0 4 -5 13
-10 18 -6 6 -18 26 -28 45 -10 19 -54 95 -97 169 -95 165 -221 382 -249 431
-80 141 -112 196 -121 211 -18 29 -111 192 -131 228 -10 19 -22 37 -25 40 -3
3 -12 19 -21 35 -8 17 -32 59 -53 95 -21 36 -45 79 -53 95 -9 17 -18 32 -22
35 -4 3 -13 19 -22 35 -8 17 -32 59 -53 95 -21 36 -45 78 -54 93 -9 16 -21 36
-26 45 -6 9 -31 52 -55 95 -25 44 -55 95 -67 115 -11 21 -28 48 -35 62 -8 14
-42 72 -75 130 -33 58 -101 177 -152 265 -50 88 -96 167 -101 175 -62 104
-140 242 -140 249 0 5 -4 11 -8 13 -5 2 -28 38 -53 82 -24 43 -55 98 -69 121
-14 23 -45 78 -70 121 -25 44 -50 88 -57 99 -7 11 -20 34 -28 50 -9 17 -22 39
-28 50 -21 35 -111 189 -127 217 -22 40 -111 193 -137 236 -13 20 -26 44 -30
52 -6 13 -46 82 -90 155 -6 11 -19 34 -28 50 -8 17 -21 39 -28 50 -7 11 -33
55 -57 98 -25 43 -50 86 -55 95 -6 9 -37 64 -70 122 -32 58 -62 107 -65 110
-3 3 -11 16 -18 30 -6 14 -27 52 -47 85 -19 33 -44 76 -55 95 -11 19 -24 42
-30 50 -23 37 -220 380 -220 384 0 2 -24 43 -53 92 -29 49 -57 96 -61 104 -4
8 -17 31 -29 52 -12 20 -42 71 -67 115 -24 43 -49 86 -55 95 -5 9 -17 29 -26
45 -9 15 -33 57 -54 93 -21 36 -45 79 -53 95 -9 17 -22 36 -29 43 -7 7 -13 19
-13 25 0 7 -9 23 -19 36 l-18 24 -17 -26z m-919 -2892 c-34 -58 -67 -113 -72
-123 -6 -9 -31 -52 -55 -96 -25 -43 -60 -104 -78 -135 -18 -31 -37 -66 -44
-78 -10 -21 -12 -21 -42 -6 -17 9 -33 19 -36 22 -3 4 -27 20 -55 36 -27 15
-52 31 -55 35 -3 3 -26 18 -52 33 -27 15 -48 30 -48 32 0 4 57 42 228 151 104
65 178 112 207 132 11 7 33 20 49 30 15 9 44 29 65 44 20 15 39 27 43 27 3 1
-22 -46 -55 -104z m1908 46 c22 -14 45 -30 50 -34 6 -4 57 -37 115 -74 133
-83 230 -144 255 -161 11 -7 35 -22 53 -34 l34 -21 -84 -54 c-46 -30 -92 -59
-103 -64 -11 -5 -35 -21 -54 -34 -18 -14 -36 -23 -40 -21 -4 3 -17 24 -29 48
-13 24 -33 60 -45 80 -12 20 -47 80 -77 133 -30 53 -59 104 -65 114 -5 9 -23
39 -39 66 -16 28 -38 66 -50 85 l-21 35 30 -19 c17 -11 48 -31 70 -45z"/>
<path d="M4953 3388 c-6 -7 -19 -33 -30 -58 -12 -25 -48 -103 -82 -173 -34
-71 -61 -130 -61 -132 0 -2 -29 -64 -64 -138 -36 -74 -79 -166 -97 -203 -17
-38 -52 -112 -77 -164 -72 -153 -132 -282 -132 -286 0 -2 62 -4 138 -4 l138 0
30 63 c54 108 106 219 234 492 69 147 107 229 155 330 26 55 61 129 77 165 17
36 37 77 45 93 l14 27 -140 0 c-99 0 -141 -4 -148 -12z"/>
<path d="M1131 1691 c-25 -10 -58 -33 -74 -52 -16 -19 -46 -52 -66 -74 -62
-67 -81 -135 -81 -286 0 -161 17 -212 104 -317 85 -102 111 -112 282 -112 168
0 193 11 279 116 89 109 93 122 94 304 1 176 -12 232 -64 285 -17 17 -47 51
-67 75 -52 64 -104 80 -249 79 -85 0 -125 -5 -158 -18z m238 -155 c80 -42 126
-190 102 -332 -16 -94 -49 -153 -105 -182 -51 -27 -95 -28 -145 -2 -146 74
-147 436 -2 515 34 19 115 19 150 1z"/>
<path d="M3260 1695 c-14 -8 -32 -14 -40 -15 -9 0 -24 -10 -35 -22 -147 -169
-155 -189 -155 -377 0 -155 27 -259 74 -289 6 -4 28 -27 49 -52 66 -78 100
-90 258 -90 164 0 183 8 281 116 85 95 98 135 98 308 0 178 -12 215 -100 319
-46 53 -81 85 -107 95 -55 22 -288 27 -323 7z m218 -156 c69 -24 112 -122 112
-257 0 -142 -36 -224 -117 -266 -91 -46 -198 18 -233 140 -7 23 -11 82 -8 140
3 88 7 108 33 160 22 42 40 64 65 76 40 20 102 23 148 7z"/>
<path d="M330 1275 l0 -415 260 0 260 0 0 85 0 85 -165 0 -165 0 0 330 0 330
-95 0 -95 0 0 -415z"/>
<path d="M1810 1275 l0 -415 95 0 95 0 0 175 0 175 155 0 155 0 0 85 0 85
-155 0 -155 0 0 80 0 80 165 0 165 0 0 75 0 75 -260 0 -260 0 0 -415z"/>
<path d="M2440 1275 l0 -415 95 0 95 0 0 175 0 175 155 0 155 0 0 85 0 85
-155 0 -155 0 0 80 0 80 170 0 170 0 0 75 0 75 -265 0 -265 0 0 -415z"/>
<path d="M3850 1615 l0 -75 115 0 115 0 0 -340 0 -340 95 0 95 0 0 340 0 340
115 0 115 0 0 75 0 75 -325 0 -325 0 0 -75z"/>
<path d="M4610 1275 l0 -415 265 0 265 0 0 85 0 85 -175 0 -175 0 0 100 0 100
165 0 166 0 -3 78 -3 77 -163 3 -163 2 3 73 3 72 173 3 172 2 0 75 0 75 -265
0 -265 0 0 -415z"/>
<path d="M5290 1275 l0 -415 85 0 85 0 2 283 3 282 50 -90 c47 -85 72 -131
109 -200 9 -16 38 -70 66 -120 28 -49 58 -105 67 -122 l17 -33 88 0 88 0 0
415 0 415 -85 0 -85 0 0 -232 0 -233 -49 85 c-26 47 -57 101 -69 120 -12 19
-30 51 -39 71 -10 19 -38 70 -62 112 l-45 77 -113 0 -113 0 0 -415z"/>
<path d="M6110 970 l0 -110 95 0 95 0 0 110 0 110 -95 0 -95 0 0 -110z"/>
</g>
</svg>
