<?xml version="1.0" standalone="no"?>
<!DOCTYPE svg PUBLIC "-//W3C//DTD SVG 20010904//EN"
 "http://www.w3.org/TR/2001/REC-SVG-20010904/DTD/svg10.dtd">
<svg version="1.0" xmlns="http://www.w3.org/2000/svg"
 width="225.000000pt" height="225.000000pt" viewBox="0 0 225.000000 225.000000"
 preserveAspectRatio="xMidYMid meet">
<metadata>
Created by potrace 1.16, written by Peter Selinger 2001-2019
</metadata>
<g transform="translate(0.000000,225.000000) scale(0.100000,-0.100000)"
fill="rgba(221, 235, 223, 1)" stroke="none">
<path d="M323 2235 c-159 -43 -280 -171 -313 -328 -7 -37 -10 -291 -8 -813 l3
-759 24 -58 c43 -109 139 -205 248 -249 l58 -23 753 -3 c489 -2 773 1 810 8
173 31 310 169 342 343 7 36 10 323 8 809 l-3 753 -23 58 c-44 109 -140 205
-249 248 l-58 24 -770 2 c-641 2 -779 0 -822 -12z m1632 -124 c73 -35 125 -88
159 -161 l26 -55 0 -770 0 -770 -26 -55 c-34 -73 -86 -126 -159 -161 l-60 -29
-770 0 -770 0 -60 29 c-73 35 -125 88 -159 161 l-26 55 0 770 0 770 26 55 c34
73 86 126 159 161 l60 29 770 0 770 0 60 -29z"/>
<path d="M1177 1912 c-21 -23 -22 -56 -3 -71 8 -6 46 -21 86 -32 311 -86 546
-364 579 -684 7 -67 13 -92 27 -102 44 -32 84 0 84 68 0 63 -34 215 -65 290
-60 148 -181 303 -311 395 -75 54 -209 118 -289 139 -76 19 -88 19 -108 -3z"/>
<path d="M542 1889 c-48 -19 -205 -134 -224 -164 -45 -70 4 -204 160 -440 106
-161 211 -283 394 -460 186 -179 261 -242 404 -335 220 -144 352 -192 422
-156 62 32 191 242 177 287 -8 25 -170 200 -250 270 -32 28 -66 49 -79 49 -13
0 -60 -27 -106 -60 -112 -81 -135 -85 -205 -37 -109 76 -417 396 -436 454 -15
48 -8 67 61 163 33 46 60 93 60 105 0 32 -42 82 -170 203 -144 136 -155 143
-208 121z"/>
<path d="M1154 1705 c-28 -43 -8 -68 76 -95 205 -66 366 -253 403 -468 8 -45
20 -89 27 -97 16 -20 54 -19 74 1 20 19 20 45 0 141 -49 239 -232 446 -461
522 -81 27 -99 26 -119 -4z"/>
<path d="M1135 1486 c-24 -36 -7 -59 68 -95 106 -51 192 -155 218 -265 15 -64
24 -76 59 -76 41 0 54 22 47 83 -16 130 -132 285 -260 346 -79 38 -111 39
-132 7z"/>
</g>
</svg>
